<?xml version="1.0" encoding="iso-8859-1"?>
<!-- Uploaded to: SVG Repo, www.svgrepo.com, Generator: SVG Repo Mixer Tools -->
<svg fill="#000000" height="19px" width="19px" version="1.1" id="Layer_1" xmlns="http://www.w3.org/2000/svg" xmlns:xlink="http://www.w3.org/1999/xlink" 
	 viewBox="0 0 512 512" xml:space="preserve">
<g>
	<g>
		<path d="M419.992,88.126c-27.236,0-45.558,7.663-56.952,15.117c-4.244-3.656-8.811-7.049-13.723-10.157
			C325.074,77.751,293.678,69.975,256,69.975s-69.074,7.776-93.318,23.112c-4.912,3.108-9.478,6.5-13.722,10.157
			c-11.395-7.454-29.716-15.117-56.952-15.117C41.275,88.126,0,126.387,0,173.417c0,28.128,15.012,42.748,29.529,56.887
			c9.335,9.092,18.989,18.494,26.853,33.125c1.309,2.435,2.543,4.801,3.735,7.086c10.838,20.765,22.044,42.238,54.902,42.238
			c19.167,0,33.991-9.57,43.44-18.165c1.42,1.101,2.866,2.215,4.355,3.361c14.5,11.154,41.488,31.917,41.488,44.701
			c0,4.492-0.785,5.033-3.785,6.393c-6.864,3.111-20.031,4.622-40.254,4.622h-16.696v88.36h70.51
			c30.476,0,51.268-6.754,65.428-21.257c12.83-13.139,17.662-29.86,22.777-47.561c7.643-26.454,15.556-53.762,50.862-78.988
			c9.427,8.688,24.391,18.533,43.835,18.533c32.857,0,44.063-21.472,54.9-42.236c1.192-2.285,2.428-4.653,3.737-7.088
			c7.865-14.631,17.518-24.033,26.854-33.125c14.519-14.139,29.53-28.76,29.53-56.887C512,126.387,470.726,88.126,419.992,88.126z
			 M214.388,215.863c-9.863,0-17.863-8.046-17.863-17.971s8.001-17.971,17.863-17.971c9.85,0,17.851,8.046,17.851,17.971
			S224.238,215.863,214.388,215.863z M297.625,215.863c-9.863,0-17.863-8.046-17.863-17.971s8.001-17.971,17.863-17.971
			c9.85,0,17.851,8.046,17.851,17.971S307.475,215.863,297.625,215.863z"/>
	</g>
</g>
</svg>