<?xml version="1.0" encoding="UTF-8" standalone="no"?>
<!-- Created with Inkscape (http://www.inkscape.org/) -->

<svg
   width="22.765144mm"
   height="33.035709mm"
   viewBox="0 0 22.765144 33.035709"
   version="1.1"
   id="svg1"
   xmlns="http://www.w3.org/2000/svg"
   xmlns:svg="http://www.w3.org/2000/svg">
  <defs
     id="defs1" />
  <g
     id="layer1"
     transform="translate(-5.7348575,-16.211125)">
    <rect
       style="display:none;fill:#ffffff;fill-opacity:1;stroke:#000000;stroke-width:0.480341;stroke-linecap:round;stroke-dasharray:none;stroke-opacity:1;paint-order:markers stroke fill"
       id="rect17"
       width="25.025747"
       height="33.139996"
       x="4.5433054"
       y="16.636923" />
    <path
       id="path16"
       style="stroke-width:0.180404"
       d="m 24.583947,19.113507 c -0.814419,-2.8e-5 -1.570764,0.219716 -2.197291,0.595649 0.294567,0.295913 0.589228,0.610931 0.884662,0.939975 0.373064,-0.207964 0.813652,-0.330114 1.287352,-0.330128 1.335691,3.8e-5 2.418421,0.956763 2.418457,2.136954 1.11e-4,0.78858 -0.484283,1.475825 -1.203484,1.846228 -0.204425,0.105282 -0.427787,0.184772 -0.664643,0.233574 -0.177097,0.03649 -0.360657,0.05749 -0.55033,0.0575 -1.335833,-3.6e-5 -2.418622,-0.956991 -2.418455,-2.137308 1.7e-5,-0.549999 0.241551,-1.046503 0.627878,-1.425228 -0.293904,-0.333575 -0.591298,-0.655402 -0.887532,-0.957013 -0.746177,0.630046 -1.212775,1.51613 -1.212675,2.500093 3e-6,0.67578 0.228096,4.260808 0.607199,8.550296 0.01554,0.175862 0.02585,0.321557 0.04193,0.499805 0.660725,7.326072 1.765236,16.518742 3.035422,17.543957 0.07658,0.0088 0.144645,0.01893 0.221739,0.02769 a 0.36961988,0.22840078 0 0 1 0.142466,0.04011 c 2.101266,-0.977041 3.783353,-24.79018 3.783361,-26.661859 1.93e-4,-1.911037 -1.753231,-3.460377 -3.916061,-3.460302 z" />
    <path
       d="m 24.310144,48.432611 c 0.06893,0.06034 0.138316,0.100081 0.208256,0.100079 0.03994,10e-7 0.07975,-0.01396 0.119373,-0.03393 a 0.33250001,0.22281314 0 0 0 -0.128158,-0.03913 c -0.06935,-0.0085 -0.130576,-0.01839 -0.199471,-0.02701 z"
       style="stroke-width:0.818605;stroke-linecap:round"
       id="path15" />
    <path
       d="m 20.918282,31.903666 c -0.01386,-0.171073 -0.02274,-0.310903 -0.03615,-0.479687 -0.605593,0.23287 -1.297273,0.444136 -2.089733,0.62925 -3.415466,0.797833 -6.529436,2.036785 -8.863533,3.510103 -2.3340981,1.473319 -3.8988673,3.18504 -4.1571809,4.939628 -0.2583137,1.754589 0.8297183,3.529967 3.6609926,5.044901 2.8312753,1.514933 8.3622373,2.834721 15.1450153,3.692044 0.17247,0.02168 0.198952,-0.0044 0.231363,-0.122972 0.13676,-0.53702 -9.454205,-0.956089 -14.985175,-3.915551 C 7.1179923,43.753536 6.1702083,42.15314 6.40653,40.547931 c 0.2363215,-1.605208 1.6976624,-3.236645 3.954644,-4.661286 2.256983,-1.424642 5.298549,-2.639366 8.635248,-3.418799 0.710215,-0.165903 1.346877,-0.355681 1.92186,-0.56418 z"
       style="stroke-width:0.794831;stroke-linecap:round"
       id="path14" />
    <path
       id="path11"
       style="fill:#000000;fill-opacity:1;stroke:#fffdfd;stroke-width:1.086;stroke-linecap:round;stroke-dasharray:none;stroke-opacity:1;paint-order:markers stroke fill"
       d="m 19.620319,16.787171 a 0.32884297,0.2203625 0 0 0 -0.240209,0.05069 0.32884297,0.2203625 0 0 0 -0.04089,0.310631 c 0,0 1.313856,1.059604 2.712816,2.604239 0.263553,0.290996 0.528138,0.601498 0.789619,0.923333 0.0014,-0.0015 0.0028,-0.003 0.004,-0.0045 0.574544,0.707598 1.124235,1.47755 1.555729,2.276483 0.180925,0.33499 0.336497,0.673673 0.469173,1.013063 0.205307,-0.04586 0.398791,-0.120565 0.575988,-0.219532 -0.129333,-0.316175 -0.273984,-0.630757 -0.441063,-0.940114 -0.477131,-0.883429 -1.090589,-1.723511 -1.723875,-2.488822 0.0027,-0.0016 0.005,-0.0032 0.0077,-0.0048 -0.26278,-0.31747 -0.524935,-0.6214 -0.787005,-0.9069 C 21.114739,17.889335 19.843661,16.8652 19.843661,16.8652 a 0.32884297,0.2203625 0 0 0 -0.223342,-0.07809 z" />
  </g>
</svg>
